<svg width="300" height="296" viewBox="0 0 300 296" fill="none" xmlns="http://www.w3.org/2000/svg">
<g clip-path="url(#clip0_81_146)">
<path d="M261.711 252.903C255.646 259.216 249.89 263.289 245.351 266.51C191.98 304.32 128.828 293.298 115.407 290.608C95.5869 286.634 57.277 278.951 29.5787 246.79C-12.3262 198.134 -5.80165 121.477 26.7033 70.8738C32.6492 61.618 64.0541 10.2443 127.887 2.00655C166.516 -2.98033 211.548 7.07704 244.157 34.0525C312.608 90.6639 307.736 205.062 261.711 252.903Z" fill="#DEE8F2"/>
<path d="M151.674 230.687C151.674 230.687 187.377 83.2213 260.234 3.03115C265.133 -2.35901 274.049 -0.227864 275.938 6.80164C288.569 53.8426 312.549 196.446 151.674 230.687Z" fill="#80C587"/>
<path opacity="0.5" d="M166.43 221.239C166.389 221.273 166.357 221.315 166.333 221.362C166.309 221.408 166.294 221.459 166.29 221.512C166.286 221.564 166.292 221.617 166.308 221.667C166.324 221.717 166.35 221.763 166.384 221.803C166.418 221.843 166.459 221.876 166.506 221.9C166.553 221.924 166.604 221.939 166.656 221.943C166.708 221.947 166.761 221.941 166.811 221.925C166.861 221.909 166.908 221.883 166.948 221.849C181.911 210.828 239.825 156.629 261.639 48.1508C261.654 48.0806 261.642 48.0073 261.604 47.9461C261.566 47.8849 261.507 47.8405 261.437 47.822C261.368 47.8035 261.294 47.8123 261.231 47.8467C261.168 47.881 261.12 47.9382 261.098 48.0066C253.738 73.141 223.693 165.807 166.43 221.239Z" fill="white"/>
<path d="M118.743 231.943C118.743 231.943 83.2361 100.238 18.6885 30.6639C14.3492 25.9869 6.88525 28.2492 5.53279 34.6705C-3.47213 77.5984 -18.6492 207.202 118.743 231.943Z" fill="#6DAA73"/>
<path opacity="0.5" d="M105.915 223.982C106.234 224.285 105.852 224.802 105.498 224.554C92.4361 215.185 41.4738 168.489 19.1148 71.4393C19.1029 71.409 19.0974 71.3766 19.0985 71.3441C19.0996 71.3116 19.1074 71.2797 19.1213 71.2503C19.1351 71.2208 19.1549 71.1945 19.1792 71.173C19.2036 71.1515 19.2321 71.1351 19.263 71.125C19.2939 71.1148 19.3266 71.1111 19.359 71.114C19.3914 71.1168 19.4229 71.1263 19.4515 71.1418C19.4801 71.1572 19.5053 71.1784 19.5255 71.2039C19.5456 71.2294 19.5604 71.2588 19.5689 71.2902C26.7016 93.682 55.4574 176.152 105.915 223.982Z" fill="white"/>
<path d="M181.302 245.239C181.302 245.239 221.984 187.977 277.849 141.305C291.115 130.223 296.582 108.6 297.664 113.764C306.73 157.087 293.672 245.126 181.302 245.239Z" fill="#6DAA73"/>
<path opacity="0.5" d="M203.561 242.008C203.264 242.203 203.492 242.664 203.81 242.52C215.487 236.946 262.498 207.179 293.974 133.449C293.994 133.405 293.996 133.354 293.981 133.308C293.965 133.262 293.932 133.223 293.889 133.2C293.846 133.177 293.796 133.17 293.749 133.183C293.702 133.195 293.661 133.224 293.634 133.266C284.808 150.008 250.328 211.269 203.561 242.008Z" fill="white"/>
<path d="M111.584 236.121C111.584 236.121 109.836 93.7328 63.0098 5.13934C59.8623 -0.814758 51.7918 -0.727873 48.7934 5.31311C28.7393 45.7147 -19.7771 171.192 111.584 236.121Z" fill="#80C587"/>
<path opacity="0.24" d="M100.771 224.395C101.013 224.79 100.497 225.203 100.207 224.846C89.5213 211.648 50.4361 149.948 52.964 46.1295C52.959 46.0951 52.9613 46.0599 52.9708 46.0265C52.9803 45.993 52.9968 45.9619 53.0191 45.9352C53.0415 45.9085 53.0692 45.8868 53.1005 45.8716C53.1318 45.8563 53.1659 45.8478 53.2007 45.8467C53.2355 45.8455 53.2701 45.8517 53.3024 45.8648C53.3346 45.878 53.3637 45.8978 53.3878 45.9229C53.4118 45.948 53.4303 45.978 53.442 46.0108C53.4538 46.0435 53.4584 46.0784 53.4558 46.1131C54.8508 70.6492 62.4836 161.715 100.771 224.395Z" fill="white"/>
<path d="M246.075 52.6623C247.01 52.131 248.081 51.8889 249.154 51.9664C250.226 52.044 251.251 52.4377 252.1 53.0979C252.948 53.7581 253.582 54.6551 253.921 55.6754C254.259 56.6957 254.288 57.7936 254.003 58.8302C253.718 59.8668 253.132 60.7956 252.319 61.4991C251.506 62.2026 250.502 62.6492 249.435 62.7825C248.369 62.9157 247.286 62.7297 246.325 62.2478C245.364 61.766 244.568 61.01 244.036 60.0754C243.325 58.8216 243.141 57.3369 243.523 55.9471C243.905 54.5574 244.823 53.376 246.075 52.6623ZM247.141 54.5377C246.577 54.8584 246.122 55.339 245.831 55.9187C245.541 56.4984 245.429 57.1512 245.509 57.7946C245.59 58.4379 245.859 59.043 246.284 59.5332C246.708 60.0234 247.268 60.3768 247.894 60.5487C248.519 60.7205 249.181 60.7032 249.796 60.4988C250.411 60.2944 250.952 59.9122 251.351 59.4004C251.749 58.8887 251.986 58.2704 252.033 57.6237C252.08 56.977 251.934 56.3309 251.613 55.7672C251.4 55.3927 251.116 55.0639 250.776 54.7994C250.436 54.5349 250.047 54.3401 249.632 54.2259C249.216 54.1117 248.783 54.0805 248.355 54.134C247.928 54.1875 247.515 54.3247 247.141 54.5377Z" fill="white"/>
<path d="M258.852 51.6557C258.053 50.243 256.966 49.0142 255.661 48.0491C254.356 47.084 252.863 46.4041 251.278 46.0536C249.693 45.7031 248.052 45.6899 246.462 46.0148C244.872 46.3397 243.368 46.9954 242.048 47.9393C241.95 48.0113 241.837 48.0599 241.717 48.0813C241.598 48.1027 241.475 48.0964 241.359 48.0628C241.242 48.0292 241.135 47.9693 241.045 47.8876C240.955 47.8059 240.885 47.7047 240.841 47.5918L240.226 46C240.162 45.8309 240.157 45.645 240.212 45.4728C240.268 45.3005 240.38 45.1523 240.531 45.0525C240.824 44.8557 241.126 44.6689 241.438 44.4918C244.859 42.5511 248.911 42.0471 252.703 43.0902C256.496 44.1333 259.72 46.6384 261.667 50.0557C261.969 50.5875 262.238 51.1378 262.47 51.7033C262.512 51.8022 262.533 51.9084 262.532 52.0155C262.531 52.1227 262.508 52.2286 262.465 52.3268C262.423 52.425 262.36 52.5134 262.282 52.5869C262.204 52.6603 262.112 52.7172 262.011 52.7541L260.448 53.3229C260.257 53.392 260.048 53.3851 259.862 53.3036C259.677 53.222 259.53 53.0722 259.452 52.8852C259.279 52.4631 259.078 52.0524 258.852 51.6557Z" fill="white"/>
<path d="M266.113 47.523C263.493 42.9264 259.156 39.5568 254.054 38.1532C248.953 36.7497 243.503 37.4268 238.9 40.0361C238.802 40.0928 238.693 40.1277 238.581 40.1384C238.468 40.1492 238.355 40.1355 238.248 40.0983C238.141 40.0611 238.044 40.0012 237.962 39.9229C237.88 39.8445 237.817 39.7495 237.775 39.6443L237.172 38.082L237.523 37.0984C248.608 30.9475 262.657 34.8705 268.939 45.9197C269.478 46.8688 269.949 47.8549 270.349 48.8705C270.386 48.9681 270.404 49.0722 270.4 49.1767C270.397 49.2811 270.372 49.3838 270.328 49.4786C270.285 49.5735 270.222 49.6586 270.145 49.729C270.068 49.7994 269.977 49.8536 269.879 49.8885L268.318 50.4557C268.127 50.5264 267.916 50.5198 267.73 50.4375C267.544 50.3552 267.397 50.2035 267.321 50.0148C266.978 49.1568 266.574 48.3242 266.113 47.523Z" fill="white"/>
<path d="M273.382 43.3902C265.866 30.1672 249.236 25.3082 235.831 32.1967C235.733 32.2487 235.624 32.2793 235.513 32.2864C235.402 32.2936 235.291 32.2773 235.187 32.2384C235.082 32.1996 234.987 32.1391 234.908 32.061C234.829 31.9829 234.767 31.8889 234.726 31.7852L234.128 30.2361C234.059 30.0548 234.058 29.8544 234.127 29.673C234.196 29.4916 234.329 29.3419 234.502 29.2525C249.42 21.6869 267.846 27.1098 276.197 41.7967C276.968 43.156 277.636 44.5708 278.197 46.0295C278.233 46.1274 278.25 46.2316 278.247 46.3361C278.243 46.4406 278.218 46.5433 278.174 46.6382C278.13 46.7331 278.068 46.8183 277.991 46.8888C277.913 46.9594 277.823 47.0139 277.725 47.0492L276.166 47.6148C275.971 47.6853 275.756 47.6762 275.568 47.5893C275.38 47.5025 275.233 47.3449 275.161 47.1508C274.662 45.8548 274.067 44.5978 273.382 43.3902Z" fill="white"/>
<path d="M220.91 40.7049H46.559C40.7881 40.7049 36.1098 45.3832 36.1098 51.1541V225.505C36.1098 231.276 40.7881 235.954 46.559 235.954H220.91C226.681 235.954 231.359 231.276 231.359 225.505V51.1541C231.359 45.3832 226.681 40.7049 220.91 40.7049Z" fill="white"/>
<path d="M93.5918 63.777H58.9688V98.4H93.5918V63.777Z" fill="#48494B"/>
<path d="M90.2459 67.5787H62.5672V95.2574H90.2459V67.5787Z" fill="white"/>
<path d="M85.4935 72.8426H67.3164V91.0197H85.4935V72.8426Z" fill="#48494B"/>
<path d="M208.203 63.777H173.58V98.4H208.203V63.777Z" fill="#48494B"/>
<path d="M204.856 67.5787H177.177V95.2574H204.856V67.5787Z" fill="white"/>
<path d="M200.105 72.8426H181.928V91.0197H200.105V72.8426Z" fill="#48494B"/>
<path d="M208.156 178.354H173.533V212.977H208.156V178.354Z" fill="#48494B"/>
<path d="M204.81 182.157H177.131V209.836H204.81V182.157Z" fill="white"/>
<path d="M200.057 187.421H181.88V205.598H200.057V187.421Z" fill="#48494B"/>
<path d="M133.995 123.205H118.869V138.331H133.995V123.205Z" fill="#48494B"/>
<path d="M149.12 137.725H133.993V152.851H149.12V137.725Z" fill="#48494B"/>
<path d="M149.379 107.821H134.252V122.948H149.379V107.821Z" fill="#48494B"/>
<path d="M163.997 107.821H148.87V122.948H163.997V107.821Z" fill="#48494B"/>
<path d="M179.123 123.205H163.997V138.331H179.123V123.205Z" fill="#48494B"/>
<path d="M193.082 137.725H177.956V152.851H193.082V137.725Z" fill="#48494B"/>
<path d="M193.082 152.592H177.956V167.718H193.082V152.592Z" fill="#48494B"/>
<path d="M193.998 108.08H178.872V123.207H193.998V108.08Z" fill="#48494B"/>
<path d="M118.939 123.205H103.813V138.331H118.939V123.205Z" fill="#48494B"/>
<path d="M103.993 108.08H88.8672V123.207H103.993V108.08Z" fill="#48494B"/>
<path d="M74.0115 108.339H58.8853V123.466H74.0115V108.339Z" fill="#48494B"/>
<path d="M208.207 123.205H193.08V138.331H208.207V123.205Z" fill="#48494B"/>
<path d="M207.948 152.592H192.821V167.718H207.948V152.592Z" fill="#48494B"/>
<path d="M118.939 92.7082H103.813V107.834H118.939V92.7082Z" fill="#48494B"/>
<path d="M118.939 77.8885H103.813V93.0148H118.939V77.8885Z" fill="#48494B"/>
<path d="M118.869 63.5131H103.743V78.6393H118.869V63.5131Z" fill="#48494B"/>
<path d="M133.736 63.5131H118.61V78.6393H133.736V63.5131Z" fill="#48494B"/>
<path d="M149.12 77.8885H133.993V93.0148H149.12V77.8885Z" fill="#48494B"/>
<path d="M163.997 92.9541H148.87V108.08H163.997V92.9541Z" fill="#48494B"/>
<path d="M163.997 62.7623H148.87V77.8885H163.997V62.7623Z" fill="#48494B"/>
<path d="M118.939 137.725H103.813V152.851H118.939V137.725Z" fill="#48494B"/>
<path d="M133.995 153.11H118.869V168.236H133.995V153.11Z" fill="#48494B"/>
<path d="M103.744 152.851H88.618V167.977H103.744V152.851Z" fill="#48494B"/>
<path d="M88.759 123.205H73.6328V138.331H88.759V123.205Z" fill="#48494B"/>
<path d="M73.9902 123.205H58.864V138.331H73.9902V123.205Z" fill="#48494B"/>
<path d="M133.995 167.889H118.869V183.015H133.995V167.889Z" fill="#48494B"/>
<path d="M133.995 182.639H118.869V197.766H133.995V182.639Z" fill="#48494B"/>
<path d="M148.872 182.639H133.746V197.766H148.872V182.639Z" fill="#48494B"/>
<path d="M88.7967 152.851H73.6705V167.977H88.7967V152.851Z" fill="#48494B"/>
<path d="M88.7967 167.628H73.6705V182.754H88.7967V167.628Z" fill="#48494B"/>
<path d="M103.744 182.39H88.618V197.516H103.744V182.39Z" fill="#48494B"/>
<path d="M118.939 197.848H103.813V212.974H118.939V197.848Z" fill="#48494B"/>
<path d="M163.748 197.848H148.621V212.974H163.748V197.848Z" fill="#48494B"/>
<path d="M73.4934 182.639H58.3672V197.766H73.4934V182.639Z" fill="#48494B"/>
<path d="M163.748 167.889H148.621V183.015H163.748V167.889Z" fill="#48494B"/>
<path d="M240.593 255.893C240.556 259.716 237.27 262.816 233.256 262.826L136.207 263.038C132.164 263.038 128.807 259.948 128.711 256.11L124.195 75.3607C124.163 74.3484 124.335 73.34 124.703 72.3962C125.07 71.4523 125.624 70.5925 126.332 69.8684C127.041 69.1442 127.888 68.5707 128.823 68.1823C129.758 67.7939 130.763 67.5986 131.775 67.6082L234.784 68.1C235.798 68.1066 236.8 68.3138 237.734 68.7097C238.667 69.1055 239.513 69.6822 240.223 70.4065C240.933 71.1308 241.492 71.9884 241.869 72.9298C242.245 73.8712 242.432 74.8779 242.418 75.8918L240.593 255.893Z" fill="#333435"/>
<path d="M231.848 86.3262C231.875 82.1951 228.487 78.8262 224.279 78.8066L142.52 78.4475C138.285 78.4295 134.923 81.7803 135.015 85.9262L138.375 239.605C138.457 243.375 141.787 246.408 145.81 246.402L223.484 246.279C227.484 246.279 230.746 243.233 230.772 239.48L231.848 86.3262Z" fill="white"/>
<g opacity="0.46">
<path d="M228.918 95.9426C228.944 92.1951 225.87 89.1361 222.049 89.1197L147.851 88.7918C144.007 88.7754 140.956 91.8164 141.038 95.5787L144.089 235.049C144.164 238.466 147.185 241.225 150.836 241.218L221.328 241.107C224.957 241.107 227.92 238.341 227.943 234.936L228.918 95.9426Z" fill="white"/>
</g>
<path d="M195.718 72.959C195.719 73.1486 195.683 73.3366 195.611 73.5121C195.539 73.6876 195.433 73.8471 195.3 73.9814C195.166 74.1157 195.007 74.2221 194.831 74.2946C194.656 74.367 194.468 74.4039 194.279 74.4033L173.002 74.3065C172.615 74.3036 172.245 74.149 171.971 73.8762C171.698 73.6034 171.542 73.234 171.538 72.8475C171.534 72.658 171.569 72.4698 171.639 72.2939C171.71 72.118 171.815 71.9579 171.948 71.8231C172.081 71.6882 172.24 71.5813 172.415 71.5087C172.59 71.436 172.778 71.3991 172.967 71.4L194.269 71.5C194.654 71.503 195.022 71.658 195.294 71.9313C195.565 72.2045 195.718 72.5739 195.718 72.959Z" fill="#5C5E61"/>
<path d="M218.666 104.315H151.456C150.005 104.315 148.829 105.491 148.829 106.941V174.151C148.829 175.601 150.005 176.777 151.456 176.777H218.666C220.116 176.777 221.292 175.601 221.292 174.151V106.941C221.292 105.491 220.116 104.315 218.666 104.315Z" fill="white"/>
<path d="M144.805 114.725C144.621 114.725 144.445 114.652 144.315 114.521C144.185 114.391 144.111 114.215 144.111 114.031V100.474H160.052C160.236 100.474 160.413 100.547 160.543 100.677C160.673 100.807 160.746 100.983 160.746 101.167C160.746 101.351 160.673 101.527 160.543 101.658C160.413 101.788 160.236 101.861 160.052 101.861H145.498V114.031C145.498 114.215 145.425 114.391 145.295 114.521C145.165 114.651 144.989 114.724 144.805 114.725Z" fill="#333435"/>
<path d="M159.969 180.785H144.028V167.221C144.028 167.037 144.101 166.861 144.231 166.731C144.361 166.601 144.537 166.528 144.721 166.528C144.905 166.528 145.082 166.601 145.212 166.731C145.342 166.861 145.415 167.037 145.415 167.221V179.392H159.969C160.153 179.392 160.329 179.465 160.459 179.595C160.589 179.725 160.662 179.901 160.662 180.085C160.662 180.269 160.589 180.446 160.459 180.576C160.329 180.706 160.153 180.779 159.969 180.779V180.785Z" fill="#333435"/>
<path d="M225.015 180.785H209.072C208.888 180.785 208.712 180.712 208.582 180.582C208.452 180.452 208.379 180.276 208.379 180.092C208.379 179.908 208.452 179.731 208.582 179.601C208.712 179.471 208.888 179.398 209.072 179.398H223.628V167.221C223.628 167.037 223.701 166.861 223.831 166.731C223.961 166.601 224.137 166.528 224.321 166.528C224.505 166.528 224.682 166.601 224.812 166.731C224.942 166.861 225.015 167.037 225.015 167.221V180.785Z" fill="#333435"/>
<path d="M224.959 114.725C224.775 114.725 224.599 114.652 224.469 114.521C224.339 114.391 224.266 114.215 224.266 114.031V101.861H209.71C209.526 101.861 209.35 101.788 209.219 101.658C209.089 101.527 209.016 101.351 209.016 101.167C209.016 100.983 209.089 100.807 209.219 100.677C209.35 100.547 209.526 100.474 209.71 100.474H225.652V114.031C225.652 114.215 225.579 114.391 225.449 114.521C225.319 114.652 225.143 114.725 224.959 114.725Z" fill="#333435"/>
<path d="M207.208 215H159.911C158.856 215 158 215.856 158 216.911V233.392C158 234.447 158.856 235.303 159.911 235.303H207.208C208.264 235.303 209.12 234.447 209.12 233.392V216.911C209.12 215.856 208.264 215 207.208 215Z" fill="#415CAE"/>
<path d="M168.582 109.498H154.005V124.075H168.582V109.498Z" fill="#333435"/>
<path d="M167.172 111.098H155.52V122.751H167.172V111.098Z" fill="#333435"/>
<path d="M165.172 113.315H157.52V120.967H165.172V113.315Z" fill="#333435"/>
<path d="M216.834 109.498H202.257V124.075H216.834V109.498Z" fill="#333435"/>
<path d="M215.425 111.098H203.772V122.751H215.425V111.098Z" fill="#333435"/>
<path d="M213.425 113.315H205.772V120.967H213.425V113.315Z" fill="#333435"/>
<path d="M216.815 157.738H202.238V172.315H216.815V157.738Z" fill="#333435"/>
<path d="M215.405 159.338H203.752V170.99H215.405V159.338Z" fill="#333435"/>
<path d="M213.405 161.554H205.752V169.207H213.405V161.554Z" fill="#333435"/>
<path d="M185.592 134.518H179.223V140.887H185.592V134.518Z" fill="#333435"/>
<path d="M191.961 140.631H185.592V147H191.961V140.631Z" fill="#333435"/>
<path d="M192.069 128.041H185.7V134.41H192.069V128.041Z" fill="#333435"/>
<path d="M198.223 128.041H191.854V134.41H198.223V128.041Z" fill="#333435"/>
<path d="M204.592 134.518H198.223V140.887H204.592V134.518Z" fill="#333435"/>
<path d="M210.469 140.631H204.1V147H210.469V140.631Z" fill="#333435"/>
<path d="M210.469 146.89H204.1V153.259H210.469V146.89Z" fill="#333435"/>
<path d="M210.854 128.151H204.485V134.52H210.854V128.151Z" fill="#333435"/>
<path d="M179.254 134.518H172.885V140.887H179.254V134.518Z" fill="#333435"/>
<path d="M172.961 128.151H166.592V134.52H172.961V128.151Z" fill="#333435"/>
<path d="M160.338 128.259H153.969V134.628H160.338V128.259Z" fill="#333435"/>
<path d="M216.836 134.518H210.467V140.887H216.836V134.518Z" fill="#333435"/>
<path d="M216.728 146.89H210.359V153.259H216.728V146.89Z" fill="#333435"/>
<path d="M179.254 121.679H172.885V128.048H179.254V121.679Z" fill="#333435"/>
<path d="M179.254 115.439H172.885V121.808H179.254V115.439Z" fill="#333435"/>
<path d="M179.225 109.387H172.856V115.756H179.225V109.387Z" fill="#333435"/>
<path d="M185.484 109.387H179.115V115.756H185.484V109.387Z" fill="#333435"/>
<path d="M191.961 115.439H185.592V121.808H191.961V115.439Z" fill="#333435"/>
<path d="M198.223 121.782H191.854V128.151H198.223V121.782Z" fill="#333435"/>
<path d="M198.223 109.07H191.854V115.439H198.223V109.07Z" fill="#333435"/>
<path d="M179.254 140.631H172.885V147H179.254V140.631Z" fill="#333435"/>
<path d="M185.592 147.108H179.223V153.477H185.592V147.108Z" fill="#333435"/>
<path d="M172.856 147H166.487V153.369H172.856V147Z" fill="#333435"/>
<path d="M166.548 134.518H160.179V140.887H166.548V134.518Z" fill="#333435"/>
<path d="M160.329 134.518H153.961V140.887H160.329V134.518Z" fill="#333435"/>
<path d="M185.592 153.331H179.223V159.7H185.592V153.331Z" fill="#333435"/>
<path d="M185.592 159.541H179.223V165.91H185.592V159.541Z" fill="#333435"/>
<path d="M191.856 159.541H185.487V165.91H191.856V159.541Z" fill="#333435"/>
<path d="M166.562 147H160.193V153.369H166.562V147Z" fill="#333435"/>
<path d="M166.562 153.221H160.193V159.59H166.562V153.221Z" fill="#333435"/>
<path d="M172.856 159.436H166.487V165.805H172.856V159.436Z" fill="#333435"/>
<path d="M179.254 165.944H172.885V172.313H179.254V165.944Z" fill="#333435"/>
<path d="M198.118 165.944H191.749V172.313H198.118V165.944Z" fill="#333435"/>
<path d="M160.12 159.541H153.751V165.91H160.12V159.541Z" fill="#333435"/>
<path d="M198.118 153.331H191.749V159.7H198.118V153.331Z" fill="#333435"/>
<path d="M244.675 169.405C244.675 169.405 235.105 191.241 221.5 194.623C218.867 195.134 215.774 194.91 214.39 195.77C212.818 196.754 214.73 199.377 215.493 201.377C216.257 203.377 216.556 202.439 216.895 201.803C217.234 201.167 215.805 199.156 217.674 198.361C219.543 197.566 218.985 198.785 218.098 199.836C217.211 200.887 217.249 202.498 217.307 202.582C217.364 202.666 218.782 201.961 220.11 201.338C221.257 200.802 221.892 199.333 222.051 198.926C224.744 198.611 241.607 195.961 248.772 178.228C248.774 178.225 249.464 160.621 244.675 169.405Z" fill="url(#paint0_linear_81_146)"/>
<path d="M284.462 221.044C284.431 221.044 284.401 221.033 284.378 221.013C284.355 220.993 284.339 220.965 284.334 220.934C284.323 220.862 283.175 213.733 280.962 212.472C280.792 212.367 280.599 212.304 280.399 212.29C280.199 212.275 279.999 212.308 279.815 212.387C276.818 213.58 278.326 220.33 278.339 220.397C278.344 220.414 278.346 220.432 278.344 220.45C278.341 220.468 278.336 220.485 278.326 220.5C278.317 220.516 278.305 220.529 278.29 220.539C278.275 220.55 278.259 220.557 278.241 220.561C278.224 220.566 278.206 220.567 278.188 220.565C278.171 220.562 278.154 220.557 278.138 220.548C278.123 220.538 278.11 220.526 278.099 220.512C278.088 220.498 278.081 220.481 278.077 220.464C278.011 220.177 276.505 213.428 279.707 212.154C279.926 212.062 280.165 212.023 280.403 212.04C280.641 212.058 280.871 212.131 281.075 212.254C283.398 213.577 284.529 220.603 284.577 220.902C284.582 220.936 284.574 220.971 284.554 220.998C284.533 221.026 284.503 221.045 284.469 221.051L284.462 221.044Z" fill="#888B8F"/>
<path d="M287.48 220.413L276.18 219.369L273.664 220.764L275.82 223.461L286.141 222.41L287.48 220.413Z" fill="#74767B"/>
<path d="M285.848 289.218L286.034 293.541C286.051 293.94 286.201 294.321 286.46 294.624C286.72 294.927 287.074 295.133 287.466 295.21C288.825 295.474 291.016 295.807 293.188 295.746C293.413 295.738 293.633 295.681 293.832 295.577C294.032 295.474 294.206 295.329 294.342 295.15C294.479 294.972 294.574 294.765 294.621 294.546C294.668 294.326 294.666 294.099 294.615 293.88C294.218 292.187 293.451 289.629 292.179 288.062L287.425 287.692C287.218 287.676 287.01 287.704 286.815 287.774C286.62 287.845 286.442 287.956 286.292 288.1C286.143 288.244 286.027 288.418 285.95 288.611C285.873 288.804 285.838 289.011 285.848 289.218Z" fill="#5C5E61"/>
<path d="M252.551 236.152L251.382 240.807C251.382 240.807 251.946 268.213 251.575 279.129C251.518 280.843 250.947 282.499 249.936 283.884L244.675 291.097L257.089 285.02L257.438 283.59L255.703 280.769L260.621 250.498C260.91 248.723 260.682 246.902 259.966 245.252L257.87 240.449L252.551 236.152Z" fill="url(#paint1_linear_81_146)"/>
<path d="M243.81 292.139L247.595 292.434C247.944 292.463 248.296 292.41 248.621 292.281C248.947 292.151 249.239 291.949 249.474 291.689C250.774 290.246 253.454 287.444 254.629 287.457C256.211 287.475 255.574 293.057 255.574 293.057L256.456 293.126L258.116 286.257C258.32 285.415 258.253 284.53 257.926 283.728C257.598 282.925 257.027 282.246 256.292 281.787C256.292 281.787 255.725 284.42 253.68 285.444C251.636 286.469 245.32 290.218 245.32 290.218C244.812 290.119 244.292 290.093 243.777 290.139C242.566 290.254 242.595 292.036 243.81 292.139Z" fill="#5C5E61"/>
<path d="M268.63 239.659C268.63 239.659 282.033 270.725 284.002 277.731C285.97 284.738 286.403 290.49 286.395 291.031C286.382 291.877 287.366 292.766 290.249 292.998C291.736 293.113 292.511 292.574 292.913 292.025C293.08 291.792 293.185 291.522 293.218 291.238C293.251 290.954 293.212 290.666 293.103 290.402C292.338 288.488 289.908 282.379 289.048 279.626C288.02 276.348 286.398 261.684 285.277 256.546C284.156 251.408 282.885 245.828 276.716 240.298C276.721 240.29 272.564 235.53 268.63 239.659Z" fill="url(#paint2_linear_81_146)"/>
<path d="M262.505 189.993C259.787 172.484 270.82 163.561 270.82 163.561C267.523 159.861 262.534 157.061 258.71 155.289C257.017 154.505 255.135 154.225 253.288 154.484C251.44 154.743 249.707 155.529 248.295 156.748C245.125 159.487 241.675 163.366 242.138 166.995C242.63 170.839 248.298 190.274 248.298 190.274C248.298 190.274 254.664 193.908 262.505 189.993Z" fill="#8B9DD5"/>
<path d="M270.838 199.207C269.574 194.103 262.505 189.993 262.505 189.993C254.664 193.908 248.303 190.267 248.303 190.267C248.303 190.267 246.38 195.813 246.992 201.154C247.603 206.495 251.382 240.807 251.382 240.807C261.328 243.641 277.19 240.746 277.19 240.746C271.639 228.816 272.1 204.31 270.838 199.207Z" fill="#5C5E61"/>
<path d="M258.131 144.467L260.275 159.549C260.489 160.879 259.316 160.574 258.016 160.221C255.885 159.646 253.167 158.582 252.367 156.834C252.29 156.654 252.247 156.46 252.241 156.264L251.625 145.877C251.602 145.476 251.709 145.078 251.932 144.744C252.154 144.409 252.479 144.156 252.857 144.021L255.687 143.023C255.942 142.933 256.214 142.899 256.483 142.925C256.753 142.952 257.013 143.036 257.246 143.174C257.479 143.312 257.679 143.499 257.832 143.722C257.985 143.946 258.087 144.2 258.131 144.467Z" fill="url(#paint3_linear_81_146)"/>
<path d="M292.933 247.436L296.808 245.208L287.48 220.413L285.241 221.925L292.933 247.436Z" fill="#979AA0"/>
<path d="M282.416 223.739H282.407C282.372 223.736 282.341 223.72 282.318 223.694C282.296 223.668 282.285 223.634 282.287 223.6C282.287 223.526 282.797 216.308 280.731 213.944C280.561 213.734 280.35 213.562 280.111 213.437C279.871 213.313 279.609 213.238 279.339 213.22C279.078 213.207 278.818 213.249 278.574 213.343C278.33 213.438 278.109 213.582 277.925 213.767C275.698 215.843 275.567 222.995 275.567 223.067C275.566 223.101 275.552 223.134 275.528 223.158C275.503 223.182 275.47 223.195 275.436 223.195C275.419 223.195 275.402 223.191 275.387 223.185C275.371 223.178 275.357 223.168 275.345 223.156C275.333 223.144 275.324 223.129 275.317 223.114C275.311 223.098 275.308 223.081 275.308 223.064C275.308 222.766 275.441 215.728 277.749 213.577C277.959 213.368 278.211 213.206 278.487 213.099C278.764 212.993 279.06 212.946 279.356 212.961C279.66 212.981 279.957 213.065 280.228 213.206C280.499 213.347 280.738 213.543 280.929 213.78C283.098 216.264 282.554 223.552 282.548 223.626C282.543 223.658 282.528 223.687 282.504 223.708C282.479 223.729 282.448 223.74 282.416 223.739Z" fill="#A8ABB2"/>
<path d="M265.42 170.379C265.974 171.113 274.371 181.103 276.775 192.249C279.18 203.395 278.371 210.839 278.371 210.839C278.371 210.839 275.928 212.661 276.807 213.954C277.685 215.248 277.453 216.126 278.575 216.377C279.698 216.628 281.09 216.98 280.92 214.766C280.749 212.551 283.397 212.102 282.957 210.762C282.518 209.423 285.513 173.456 271.031 163.698L270.825 163.562C264.702 165.772 264.53 169.198 265.42 170.379Z" fill="url(#paint4_linear_81_146)"/>
<path d="M273.659 220.846L285.241 221.925L292.933 247.436L276.305 247.87L273.659 220.846Z" fill="#B29A95"/>
<path d="M293.166 247.038H293.128C293.089 247.026 293.057 247 293.036 246.965C293.015 246.93 293.008 246.889 293.016 246.849L293.761 244.015L287.895 225.818C287.883 225.779 287.886 225.737 287.904 225.701C287.923 225.665 287.955 225.637 287.993 225.625C288.032 225.614 288.074 225.618 288.11 225.637C288.146 225.655 288.174 225.685 288.189 225.723L294.069 243.967C294.076 243.996 294.076 244.026 294.069 244.054L293.313 246.933C293.303 246.964 293.283 246.99 293.256 247.009C293.23 247.028 293.198 247.038 293.166 247.038Z" fill="#D7D9E0"/>
<path d="M296.528 245.254C296.505 245.255 296.481 245.25 296.461 245.239L294.456 244.28C294.437 244.272 294.421 244.26 294.408 244.245C294.394 244.23 294.383 244.212 294.377 244.193C294.37 244.174 294.367 244.154 294.368 244.134C294.37 244.113 294.375 244.094 294.384 244.075C294.403 244.04 294.435 244.014 294.472 244.001C294.51 243.987 294.551 243.988 294.589 244.003L296.593 244.962C296.626 244.977 296.652 245.002 296.668 245.033C296.684 245.065 296.688 245.101 296.68 245.135C296.673 245.17 296.653 245.2 296.625 245.222C296.598 245.244 296.563 245.255 296.528 245.254Z" fill="#D7D9E0"/>
<path d="M255.759 132.51C255.759 132.51 251.169 133.756 247.375 139.628C243.582 145.5 245.392 148.693 248.105 149.464C250.818 150.234 254.966 150.733 259.89 147.274C264.815 143.815 261.693 131.1 255.759 132.51Z" fill="url(#paint5_linear_81_146)"/>
<path d="M257.4 143.528C257.4 143.528 261.911 134.797 253.793 133.59L251.698 134.67C251.698 134.67 249.403 129.18 254.628 127.415C259.852 125.649 266.869 128.795 268.07 135.675C269.272 142.556 267.469 146.659 263.574 149.341C259.679 152.023 258.734 148.257 258.734 148.257C258.734 148.257 261.029 145.561 260.466 143.877C259.902 142.193 257.88 143.861 257.88 143.861L257.4 143.528Z" fill="#333435"/>
<path d="M258.174 144.674C258.174 144.674 260.469 140.172 262.421 142.351C264.374 144.53 260.038 146.474 258.362 147.067L258.174 144.674Z" fill="url(#paint6_linear_81_146)"/>
<path d="M264.166 134.334C264.166 134.334 279.931 129.484 282.526 145.929C285.121 162.375 286.915 167.648 290.825 164.811C290.825 164.811 290.18 170.956 282.674 168.21C263.19 161.082 275.049 138.257 264.166 134.334Z" fill="#333435"/>
<g opacity="0.3">
<path d="M75.8115 262.38C75.944 262.651 75.9718 262.961 75.8895 263.251C75.8072 263.541 75.6206 263.79 75.3656 263.951C74.1984 264.685 72.982 265.38 71.7508 266.016C71.4637 266.163 71.1301 266.19 70.823 266.092C70.5159 265.994 70.2601 265.778 70.1115 265.492L70.1016 265.47C69.9604 265.184 69.9372 264.853 70.0372 264.55C70.1371 264.246 70.3521 263.994 70.6361 263.848C71.8066 263.243 72.9623 262.582 74.0705 261.88C74.3449 261.708 74.6765 261.652 74.9925 261.723C75.3085 261.795 75.583 261.99 75.7557 262.264C75.7763 262.302 75.7949 262.341 75.8115 262.38ZM66.2295 267.008C66.2513 267.051 66.2704 267.096 66.2869 267.141C66.3945 267.446 66.3767 267.782 66.2371 268.074C66.0976 268.367 65.8478 268.592 65.5426 268.7C64.2311 269.161 62.8967 269.572 61.5623 269.92C61.248 270.001 60.9143 269.954 60.6347 269.789C60.355 269.624 60.1524 269.355 60.0713 269.04C59.9902 268.726 60.0373 268.392 60.2023 268.113C60.3672 267.833 60.6365 267.63 60.9508 267.549C62.218 267.221 63.4902 266.83 64.7311 266.39C65.0133 266.292 65.3215 266.301 65.5976 266.415C65.8737 266.529 66.0985 266.74 66.2295 267.008ZM55.8705 269.411C55.9328 269.537 55.9727 269.672 55.9885 269.811C56.0254 270.133 55.933 270.456 55.7317 270.71C55.5303 270.964 55.2365 271.127 54.9148 271.164C53.5426 271.328 52.1459 271.425 50.7623 271.466C50.4432 271.468 50.1359 271.345 49.9063 271.123C49.6767 270.901 49.543 270.599 49.5338 270.28C49.5246 269.961 49.6406 269.651 49.857 269.416C50.0735 269.182 50.3731 269.041 50.6918 269.025C52.0033 268.985 53.3295 268.89 54.6262 268.738C54.8784 268.706 55.134 268.755 55.3576 268.875C55.5812 268.996 55.7616 269.183 55.8738 269.411H55.8705ZM45.2328 269.439C45.3288 269.636 45.3703 269.855 45.353 270.073C45.3357 270.291 45.2603 270.5 45.1346 270.679C45.0088 270.858 44.8374 271 44.6382 271.09C44.4389 271.18 44.2191 271.215 44.0016 271.192C42.6262 271.039 41.2426 270.825 39.8852 270.556C39.5746 270.486 39.3036 270.297 39.13 270.03C38.9564 269.763 38.8939 269.439 38.9559 269.127C39.0179 268.814 39.1995 268.538 39.4619 268.358C39.7243 268.178 40.0468 268.107 40.3607 268.161C41.6492 268.416 42.9639 268.62 44.2705 268.764C44.4754 268.786 44.6714 268.859 44.8403 268.977C45.0091 269.095 45.1453 269.254 45.2361 269.439H45.2328ZM34.8541 267.093C34.961 267.311 35.0009 267.555 34.9688 267.795C34.9367 268.035 34.834 268.26 34.6738 268.441C34.5136 268.622 34.3031 268.752 34.069 268.814C33.8349 268.875 33.5878 268.866 33.359 268.787C32.0475 268.334 30.7525 267.82 29.4869 267.256C29.3404 267.19 29.2083 267.096 29.0982 266.979C28.9881 266.862 28.9022 266.724 28.8452 266.574C28.7883 266.423 28.7615 266.263 28.7664 266.103C28.7713 265.942 28.8078 265.784 28.8738 265.638C28.9398 265.491 29.0339 265.359 29.151 265.249C29.268 265.139 29.4056 265.053 29.5558 264.996C29.7061 264.939 29.866 264.912 30.0266 264.917C30.1872 264.922 30.3453 264.959 30.4918 265.025C31.6934 265.561 32.9328 266.049 34.1705 266.479C34.4714 266.585 34.7182 266.806 34.8574 267.093H34.8541ZM25.2557 262.503C25.3732 262.741 25.4099 263.011 25.3602 263.272C25.3106 263.533 25.1772 263.771 24.9804 263.949C24.7836 264.127 24.5341 264.236 24.2696 264.26C24.0051 264.284 23.7401 264.221 23.5148 264.08C22.341 263.349 21.1852 262.559 20.0721 261.731C19.8211 261.534 19.6571 261.247 19.6152 260.931C19.5733 260.614 19.6567 260.294 19.8478 260.039C20.0388 259.783 20.3222 259.613 20.6374 259.564C20.9526 259.514 21.2746 259.59 21.5344 259.775C22.5869 260.562 23.6852 261.311 24.8 262.007C24.9982 262.127 25.1575 262.303 25.259 262.511L25.2557 262.503ZM2.88197 223.651C2.95964 223.807 3.00217 223.978 3.00656 224.152C3.04754 225.464 3.1459 226.79 3.3 228.097C3.32671 228.413 3.22956 228.726 3.02909 228.972C2.82862 229.218 2.54054 229.376 2.22573 229.413C1.91092 229.45 1.59404 229.363 1.34206 229.17C1.09008 228.978 0.922742 228.695 0.875411 228.382C0.711477 227.007 0.608201 225.608 0.565578 224.228C0.557017 223.949 0.644174 223.676 0.812555 223.453C0.980936 223.231 1.22039 223.073 1.49109 223.005C1.76178 222.938 2.04741 222.965 2.30046 223.083C2.5535 223.2 2.75872 223.401 2.88197 223.651ZM16.9148 255.918C17.0423 256.177 17.0739 256.473 17.0038 256.754C16.9338 257.034 16.7666 257.28 16.5321 257.449C16.2975 257.618 16.0108 257.698 15.7228 257.675C15.4348 257.652 15.1642 257.528 14.959 257.325C13.9754 256.351 13.0279 255.323 12.1328 254.269C12.0268 254.147 11.946 254.005 11.8952 253.852C11.8444 253.698 11.8246 253.536 11.8368 253.375C11.8491 253.214 11.8932 253.057 11.9666 252.913C12.04 252.769 12.1412 252.641 12.2644 252.537C12.3876 252.432 12.5304 252.353 12.6843 252.304C12.8383 252.255 13.0005 252.237 13.1615 252.251C13.3225 252.265 13.479 252.311 13.6221 252.386C13.7652 252.461 13.892 252.564 13.9951 252.689C14.8443 253.69 15.7475 254.666 16.6787 255.59C16.7772 255.685 16.8582 255.797 16.918 255.92L16.9148 255.918ZM4.4082 234.177C4.44517 234.251 4.47429 234.328 4.49509 234.408C4.82296 235.677 5.22131 236.949 5.6623 238.189C5.72908 238.342 5.76361 238.507 5.76377 238.675C5.76393 238.842 5.72971 239.008 5.66322 239.161C5.59673 239.315 5.49941 239.453 5.37727 239.567C5.25514 239.682 5.11081 239.77 4.95324 239.826C4.79566 239.882 4.6282 239.906 4.46124 239.895C4.29429 239.883 4.13141 239.838 3.98269 239.761C3.83398 239.685 3.7026 239.578 3.59673 239.449C3.49085 239.319 3.41274 239.169 3.36722 239.008C2.90328 237.697 2.49016 236.366 2.13934 235.03C2.06372 234.737 2.09899 234.427 2.23834 234.16C2.37768 233.892 2.61124 233.685 2.89396 233.58C3.17668 233.474 3.48853 233.477 3.76936 233.587C4.05019 233.698 4.2801 233.909 4.41476 234.179L4.4082 234.177ZM10.2574 247.62C10.4012 247.901 10.4303 248.227 10.3385 248.53C10.2468 248.832 10.0413 249.088 9.76532 249.242C9.48933 249.396 9.16434 249.437 8.85866 249.356C8.55298 249.276 8.29044 249.08 8.12623 248.81C7.38689 247.643 6.69016 246.43 6.0541 245.203L6.04099 245.18C5.96865 245.037 5.92522 244.881 5.91318 244.721C5.90114 244.561 5.92072 244.401 5.9708 244.248C6.02088 244.096 6.10049 243.955 6.20507 243.833C6.30965 243.712 6.43717 243.612 6.58033 243.539C6.72349 243.467 6.8795 243.424 7.03945 243.412C7.19939 243.399 7.36014 243.419 7.51252 243.469C7.6649 243.519 7.80592 243.599 7.92754 243.703C8.04915 243.808 8.14898 243.936 8.22131 244.079C8.82623 245.246 9.48853 246.4 10.1885 247.508C10.2197 247.549 10.241 247.59 10.2607 247.63L10.2574 247.62Z" fill="#B9BCC5"/>
<path d="M3.39672 215.09C3.50746 215.313 3.5464 215.565 3.5082 215.811C3.41312 216.433 3.33115 217.069 3.2623 217.698C3.22426 218.018 3.06145 218.31 2.80929 218.51C2.55713 218.711 2.23605 218.803 1.91592 218.768C1.59579 218.733 1.30254 218.573 1.09999 218.322C0.897443 218.072 0.801997 217.752 0.834428 217.431C0.906559 216.775 0.998365 216.102 1.09345 215.446C1.13251 215.189 1.25261 214.951 1.43625 214.767C1.61989 214.583 1.8575 214.462 2.11448 214.422C2.37146 214.383 2.6344 214.426 2.86502 214.546C3.09565 214.666 3.28192 214.857 3.39672 215.09Z" fill="#B9BCC5"/>
</g>
<g opacity="0.3">
<path d="M22.8967 183.382C23.0245 183.642 23.0554 183.94 22.984 184.221C22.9125 184.502 22.7432 184.749 22.5066 184.916C21.9934 185.28 21.4787 185.661 20.977 186.048C20.7205 186.243 20.3973 186.328 20.0778 186.286C19.7584 186.244 19.4686 186.077 19.2715 185.822C19.0745 185.567 18.9862 185.244 19.026 184.925C19.0657 184.605 19.2302 184.314 19.4836 184.115C20.0115 183.708 20.5541 183.307 21.0951 182.923C21.3593 182.736 21.6869 182.661 22.0059 182.716C22.325 182.77 22.6094 182.949 22.7967 183.213C22.8344 183.267 22.8678 183.323 22.8967 183.382Z" fill="#B9BCC5"/>
<path d="M93.0639 201.116C93.3115 201.62 93.5557 202.131 93.7852 202.646C93.8529 202.792 93.8908 202.951 93.8969 203.112C93.903 203.273 93.8771 203.434 93.8208 203.585C93.7644 203.736 93.6787 203.874 93.5685 203.992C93.4584 204.11 93.326 204.205 93.179 204.271C93.032 204.338 92.8733 204.374 92.7121 204.379C92.5509 204.384 92.3903 204.356 92.2397 204.299C92.0891 204.241 91.9514 204.154 91.8346 204.043C91.7178 203.932 91.6241 203.798 91.559 203.651C91.0213 202.461 90.4361 201.293 89.8131 200.17C89.724 200.03 89.6646 199.873 89.6384 199.709C89.6122 199.544 89.6199 199.377 89.6608 199.215C89.7018 199.054 89.7753 198.903 89.8768 198.771C89.9782 198.64 90.1055 198.53 90.2509 198.449C90.3962 198.368 90.5565 198.318 90.722 198.301C90.8875 198.285 91.0546 198.302 91.2132 198.352C91.3717 198.402 91.5184 198.484 91.6441 198.593C91.7698 198.702 91.8719 198.835 91.9443 198.985C92.3344 199.68 92.7098 200.397 93.0639 201.116ZM96.0279 208.69C96.0589 208.752 96.0846 208.817 96.1049 208.884C96.4918 210.195 96.8279 211.528 97.1033 212.857C97.1436 213.017 97.1512 213.184 97.1254 213.347C97.0997 213.51 97.0413 213.666 96.9536 213.805C96.8659 213.945 96.7509 214.065 96.6154 214.16C96.4799 214.254 96.3268 214.319 96.1652 214.352C96.0037 214.386 95.8371 214.386 95.6754 214.353C95.5138 214.32 95.3606 214.255 95.2249 214.161C95.0892 214.067 94.9739 213.947 94.8859 213.807C94.798 213.668 94.7392 213.512 94.7131 213.349C94.4508 212.084 94.1311 210.815 93.7623 209.579C93.6767 209.286 93.7039 208.971 93.8385 208.698C93.973 208.424 94.2053 208.21 94.4894 208.099C94.7736 207.988 95.089 207.987 95.3738 208.097C95.6585 208.206 95.8919 208.419 96.0279 208.692V208.69ZM88.4492 193.597C88.5812 193.869 88.6071 194.181 88.5219 194.472C88.4368 194.763 88.2466 195.012 87.9883 195.17C87.73 195.328 87.4221 195.385 87.1243 195.329C86.8265 195.273 86.5602 195.109 86.3771 194.867C85.6016 193.836 84.7738 192.823 83.918 191.857C83.7024 191.616 83.5916 191.298 83.61 190.975C83.6285 190.651 83.7747 190.348 84.0164 190.133C84.2581 189.917 84.5756 189.806 84.8991 189.825C85.2225 189.843 85.5253 189.989 85.741 190.231C86.6492 191.249 87.5213 192.315 88.3361 193.402C88.3801 193.463 88.418 193.528 88.4492 193.597ZM97.882 218.995C97.9513 219.139 97.9925 219.295 98.0033 219.454C98.0934 220.811 98.1279 222.19 98.1033 223.552C98.1057 223.716 98.0752 223.879 98.0136 224.03C97.9519 224.182 97.8604 224.32 97.7445 224.435C97.6286 224.551 97.4907 224.642 97.3388 224.703C97.187 224.764 97.0245 224.794 96.8608 224.792C96.6971 224.789 96.5357 224.753 96.3861 224.687C96.2365 224.62 96.1018 224.524 95.99 224.405C95.8782 224.285 95.7916 224.144 95.7353 223.99C95.679 223.837 95.6542 223.673 95.6623 223.51C95.6852 222.218 95.6525 220.91 95.5672 219.62C95.548 219.337 95.6274 219.057 95.7919 218.827C95.9564 218.597 96.1958 218.431 96.4691 218.357C96.7424 218.284 97.0327 218.308 97.2904 218.425C97.5481 218.542 97.7572 218.744 97.882 218.998V218.995ZM81.2836 185.974C81.4106 186.226 81.4462 186.514 81.3845 186.79C81.3227 187.065 81.1674 187.311 80.945 187.485C80.7226 187.659 80.4467 187.75 80.1645 187.744C79.8822 187.737 79.6109 187.633 79.3967 187.449C78.4131 186.613 77.3836 185.81 76.3311 185.054C76.2008 184.961 76.0901 184.843 76.0053 184.707C75.9206 184.571 75.8634 184.42 75.8372 184.261C75.8109 184.103 75.816 183.942 75.8523 183.786C75.8885 183.629 75.9551 183.482 76.0484 183.352C76.1416 183.221 76.2596 183.111 76.3956 183.026C76.5316 182.941 76.6829 182.884 76.841 182.858C76.9991 182.831 77.1608 182.837 77.3169 182.873C77.473 182.909 77.6205 182.976 77.7508 183.069C78.859 183.861 79.9459 184.708 80.9787 185.59C81.105 185.696 81.2087 185.827 81.2836 185.974ZM72.623 180.11C72.7365 180.341 72.774 180.602 72.7301 180.856C72.6862 181.11 72.5632 181.344 72.3785 181.523C72.1939 181.703 71.9572 181.82 71.7022 181.857C71.4473 181.894 71.1871 181.849 70.959 181.73C69.8115 181.126 68.6311 180.566 67.4426 180.061C67.1535 179.928 66.9274 179.688 66.8124 179.392C66.6974 179.095 66.7026 178.766 66.8269 178.473C66.9512 178.18 67.1847 177.948 67.4778 177.824C67.771 177.701 68.1006 177.697 68.3967 177.813C69.6475 178.344 70.8934 178.934 72.0967 179.569C72.3255 179.688 72.5099 179.878 72.623 180.11ZM62.8852 176.272C62.9891 176.483 63.0299 176.719 63.0027 176.953C62.9755 177.186 62.8815 177.407 62.732 177.589C62.5824 177.77 62.3837 177.904 62.1596 177.976C61.9356 178.047 61.6957 178.052 61.4689 177.99C60.2197 177.651 58.9426 177.359 57.6738 177.126C57.5133 177.1 57.3597 177.042 57.222 176.956C57.0842 176.87 56.965 176.757 56.8714 176.624C56.7778 176.491 56.7117 176.341 56.6769 176.182C56.6421 176.023 56.6394 175.859 56.6688 175.699C56.6983 175.54 56.7594 175.387 56.8485 175.251C56.9376 175.115 57.0529 174.999 57.1877 174.908C57.3225 174.817 57.4741 174.754 57.6336 174.723C57.7931 174.691 57.9572 174.692 58.1164 174.725C59.4508 174.97 60.7951 175.275 62.1098 175.633C62.2762 175.679 62.4309 175.76 62.5637 175.87C62.6965 175.98 62.8044 176.117 62.8803 176.272H62.8852ZM52.5426 174.651C52.6341 174.835 52.677 175.039 52.6672 175.244C52.6523 175.568 52.5097 175.872 52.2706 176.091C52.0315 176.309 51.7154 176.424 51.3918 176.41C50.1 176.351 48.7902 176.348 47.5 176.398C47.1763 176.411 46.8608 176.295 46.6228 176.075C46.3849 175.855 46.244 175.55 46.2311 175.226C46.2183 174.903 46.3346 174.587 46.5544 174.349C46.7742 174.111 47.0796 173.97 47.4033 173.957C48.7623 173.905 50.141 173.908 51.5016 173.969C51.7195 173.979 51.9306 174.048 52.1128 174.168C52.2951 174.288 52.4418 174.455 52.5377 174.651H52.5426ZM42.0934 175.339C42.1438 175.443 42.1797 175.554 42.2 175.667C42.2569 175.986 42.1853 176.314 42.001 176.579C41.8166 176.845 41.5345 177.027 41.2164 177.085C39.9459 177.313 38.6689 177.597 37.4197 177.931C37.1096 178.007 36.7824 177.958 36.5079 177.795C36.2335 177.632 36.0336 177.368 35.9512 177.06C35.8687 176.752 35.9102 176.424 36.0666 176.145C36.2231 175.867 36.4822 175.662 36.7885 175.572C38.1 175.22 39.4492 174.916 40.7852 174.682C41.0443 174.637 41.3111 174.676 41.5459 174.795C41.7807 174.913 41.971 175.104 42.0885 175.339H42.0934ZM32.0574 178.305C32.0688 178.328 32.0787 178.351 32.0885 178.374C32.1505 178.522 32.1826 178.681 32.1832 178.841C32.1838 179.001 32.1527 179.16 32.0918 179.309C32.0309 179.457 31.9414 179.592 31.8283 179.706C31.7152 179.82 31.5808 179.91 31.4328 179.972C30.5541 180.339 29.677 180.739 28.8246 181.159C28.5164 181.31 28.2098 181.466 27.9066 181.623C27.62 181.77 27.2869 181.798 26.9799 181.701C26.6729 181.603 26.4167 181.389 26.2672 181.103C26.1929 180.962 26.1475 180.807 26.1335 180.647C26.1195 180.488 26.1373 180.327 26.1857 180.175C26.2342 180.022 26.3125 179.881 26.4159 179.759C26.5194 179.637 26.646 179.537 26.7885 179.464C27.1087 179.298 27.4306 179.134 27.7541 178.972C28.6508 178.531 29.5738 178.111 30.4967 177.725C30.7815 177.608 31.0998 177.603 31.3882 177.71C31.6765 177.818 31.9137 178.03 32.0525 178.305H32.0574Z" fill="#B9BCC5"/>
<path d="M97.4131 229.485C97.5244 229.71 97.5634 229.964 97.5246 230.211C97.423 230.867 97.3049 231.523 97.1738 232.179C97.1452 232.339 97.0851 232.491 96.9969 232.628C96.9086 232.764 96.7941 232.881 96.6599 232.973C96.5257 233.065 96.3746 233.129 96.2154 233.161C96.0562 233.193 95.8922 233.194 95.7329 233.162C95.5735 233.13 95.4221 233.067 95.2875 232.976C95.1529 232.885 95.0379 232.768 94.949 232.632C94.8601 232.496 94.7993 232.344 94.7701 232.184C94.7408 232.024 94.7438 231.86 94.7787 231.702C94.9033 231.08 95.0148 230.449 95.1066 229.83C95.1479 229.575 95.269 229.34 95.4524 229.158C95.6357 228.977 95.8719 228.858 96.127 228.819C96.382 228.781 96.6428 228.824 96.8719 228.942C97.1009 229.061 97.2864 229.25 97.4016 229.48L97.4131 229.485Z" fill="#B9BCC5"/>
</g>
<path d="M83.9803 234.27C84.0306 234.162 84.0454 234.04 84.0228 233.922C84.0002 233.805 83.9411 233.697 83.8541 233.615L78.8229 228.826C79.4738 225.6 79.5946 222.29 79.1803 219.025L84.5393 214.613C84.6297 214.537 84.6941 214.434 84.7235 214.32C84.7529 214.205 84.7458 214.084 84.7033 213.974L81.8033 206.167C81.7619 206.056 81.6867 205.96 81.5882 205.894C81.4897 205.827 81.3729 205.793 81.2541 205.797L74.3147 205.961C72.4931 203.222 70.2373 200.798 67.6361 198.785L68.3065 191.872C68.3187 191.754 68.2936 191.635 68.2348 191.533C68.176 191.43 68.0864 191.348 67.9787 191.298L60.4 187.834C60.2915 187.783 60.1697 187.768 60.0519 187.79C59.9342 187.813 59.8265 187.872 59.7443 187.959L54.9541 192.99C51.7319 192.339 48.4251 192.218 45.1639 192.631L40.7525 187.27C40.6762 187.18 40.5736 187.116 40.459 187.086C40.3444 187.057 40.2235 187.064 40.1131 187.107L32.3049 190.008C32.1935 190.05 32.0979 190.125 32.0315 190.223C31.965 190.322 31.9311 190.439 31.9344 190.557L32.0983 197.497C29.3601 199.318 26.9371 201.574 24.9246 204.175L18.0098 203.505C17.8919 203.493 17.7732 203.518 17.6703 203.577C17.5674 203.635 17.4854 203.725 17.4361 203.833L13.9721 211.41C13.9217 211.518 13.9065 211.64 13.9289 211.758C13.9512 211.875 14.0099 211.983 14.0967 212.066L19.1279 216.854C18.4767 220.078 18.356 223.388 18.7705 226.651L13.4098 231.062C13.3182 231.138 13.2524 231.24 13.2215 231.354C13.1907 231.469 13.1963 231.59 13.2377 231.702L16.1508 239.516C16.1924 239.628 16.2677 239.723 16.3661 239.789C16.4646 239.856 16.5813 239.89 16.7 239.887L23.6393 239.723C25.4619 242.46 27.7176 244.881 30.318 246.893L29.6475 253.807C29.6361 253.924 29.6615 254.043 29.7202 254.146C29.779 254.248 29.8681 254.33 29.9754 254.38L37.5525 257.844C37.661 257.895 37.7827 257.91 37.9004 257.887C38.018 257.865 38.1257 257.806 38.2082 257.72L42.9967 252.688C46.2211 253.34 49.5302 253.46 52.7934 253.046L57.2049 258.407C57.2813 258.497 57.3839 258.561 57.4985 258.59C57.613 258.62 57.7338 258.613 57.8442 258.57L65.6524 255.662C65.7637 255.621 65.8593 255.545 65.9259 255.447C65.9926 255.349 66.0271 255.232 66.0246 255.113L65.8606 248.174C68.5994 246.352 71.023 244.096 73.0361 241.495L79.9492 242.166C80.067 242.177 80.1854 242.152 80.2882 242.093C80.3909 242.034 80.473 241.945 80.5229 241.838L83.9803 234.27Z" fill="#8B9DD5"/>
<path d="M56.4951 219.146C57.4534 221.092 57.6198 223.334 56.9592 225.4C56.2986 227.467 54.8625 229.196 52.9528 230.225C51.0432 231.255 48.8089 231.503 46.7197 230.919C44.6305 230.335 42.8494 228.963 41.7507 227.092C40.6521 225.222 40.3217 222.998 40.8288 220.889C41.336 218.78 42.6414 216.949 44.4703 215.783C46.2993 214.616 48.5093 214.204 50.6357 214.634C52.7621 215.063 54.6392 216.3 55.8721 218.085C56.1054 218.423 56.3136 218.778 56.4951 219.146ZM43.2164 225.664C43.3572 225.948 43.5182 226.222 43.6983 226.484C44.6435 227.848 46.081 228.794 47.7086 229.12C49.3363 229.447 51.0272 229.131 52.4261 228.237C53.8249 227.343 54.8228 225.941 55.2098 224.327C55.5968 222.712 55.3429 221.011 54.5015 219.58C53.66 218.149 52.2965 217.1 50.6976 216.653C49.0987 216.206 47.3889 216.397 45.9277 217.185C44.4664 217.973 43.3674 219.296 42.8618 220.878C42.3562 222.459 42.4833 224.174 43.2164 225.664Z" fill="#D7D9E0"/>
<path d="M67.2705 213.649C67.5827 214.282 67.8623 214.93 68.1082 215.592C68.1869 215.802 68.2607 216.013 68.3328 216.225C68.6843 217.268 68.9518 218.338 69.1328 219.425C69.1328 219.439 69.1328 219.454 69.1328 219.469C69.1328 219.51 69.1476 219.552 69.1525 219.593C69.1656 219.675 69.1787 219.757 69.1902 219.839C69.2045 219.941 69.1864 220.045 69.1384 220.136C69.0905 220.228 69.0151 220.301 68.923 220.348C68.877 220.37 68.8278 220.385 68.7771 220.392C68.6492 220.409 68.5196 220.376 68.4163 220.298C68.3129 220.221 68.2441 220.106 68.2246 219.979C67.6467 216.008 65.8663 212.309 63.123 209.381C60.3797 206.452 56.8051 204.434 52.8803 203.598C49.2377 202.816 45.4471 203.094 41.9574 204.398C41.3263 204.633 40.7075 204.9 40.1033 205.197C37.4708 206.499 35.1643 208.376 33.3541 210.688C31.5438 213.001 30.276 215.691 29.6441 218.559C29.0123 221.427 29.0325 224.401 29.7034 227.26C30.3743 230.12 31.6787 232.792 33.5203 235.08C35.3619 237.368 37.6937 239.213 40.3437 240.479C42.9937 241.745 45.8942 242.4 48.8312 242.396C51.7682 242.391 54.6667 241.727 57.3128 240.453C59.9589 239.179 62.2851 237.326 64.1197 235.033C64.2052 234.947 64.3192 234.896 64.44 234.889C64.5608 234.883 64.6798 234.921 64.7743 234.996C64.8689 235.072 64.9323 235.179 64.9524 235.299C64.9726 235.418 64.9481 235.54 64.8836 235.643C62.9994 237.998 60.6196 239.909 57.9131 241.241C57.2874 241.546 56.6467 241.82 55.9935 242.061C45.3525 246.025 33.4705 240.585 29.5082 229.951C27.7302 225.176 27.7852 219.912 29.6624 215.175C31.5397 210.438 35.1059 206.565 39.6721 204.305C40.3016 203.995 40.9525 203.715 41.618 203.466C46.3931 201.688 51.6577 201.742 56.3947 203.62C61.1317 205.497 65.0047 209.063 67.2656 213.63L67.2705 213.649Z" fill="#D7D9E0"/>
<g opacity="0.3">
<path d="M123.087 285.549C123.159 285.695 123.182 285.861 123.153 286.021C123.123 286.181 123.043 286.327 122.923 286.438C122.451 286.871 121.961 287.295 121.464 287.7C121.309 287.826 121.11 287.886 120.911 287.865C120.712 287.845 120.529 287.746 120.402 287.591C120.276 287.436 120.217 287.237 120.237 287.038C120.258 286.839 120.356 286.656 120.512 286.53C120.985 286.144 121.452 285.739 121.903 285.326C121.976 285.259 122.062 285.207 122.155 285.173C122.248 285.139 122.347 285.124 122.446 285.128C122.545 285.133 122.642 285.156 122.731 285.198C122.821 285.24 122.902 285.299 122.969 285.372C123.016 285.426 123.056 285.485 123.087 285.549Z" fill="#B9BCC5"/>
<path d="M118.472 289.066C118.554 289.233 118.571 289.425 118.52 289.605C118.469 289.784 118.353 289.938 118.195 290.038C117.257 290.624 116.289 291.163 115.297 291.652C115.089 291.754 114.879 291.854 114.667 291.954C114.485 292.032 114.28 292.037 114.093 291.969C113.907 291.901 113.754 291.765 113.664 291.588C113.58 291.407 113.571 291.2 113.639 291.013C113.707 290.825 113.847 290.672 114.028 290.587C114.231 290.492 114.431 290.397 114.631 290.298C115.578 289.832 116.5 289.318 117.395 288.759C117.479 288.706 117.572 288.671 117.67 288.654C117.768 288.638 117.868 288.64 117.964 288.663C118.061 288.685 118.152 288.726 118.233 288.784C118.314 288.841 118.382 288.914 118.434 288.998C118.448 289.025 118.461 289.043 118.472 289.066ZM111.375 292.375C111.391 292.408 111.405 292.441 111.416 292.475C111.478 292.666 111.462 292.872 111.371 293.051C111.28 293.229 111.123 293.364 110.933 293.426C109.66 293.841 108.363 294.177 107.049 294.434C106.861 294.455 106.672 294.404 106.52 294.292C106.367 294.18 106.263 294.014 106.227 293.829C106.191 293.643 106.226 293.451 106.325 293.289C106.424 293.128 106.58 293.01 106.762 292.959C108.016 292.716 109.254 292.396 110.469 292C110.64 291.944 110.825 291.951 110.992 292.02C111.158 292.089 111.294 292.215 111.375 292.375ZM103.687 293.864C103.73 293.953 103.756 294.049 103.764 294.148C103.777 294.347 103.71 294.544 103.578 294.695C103.447 294.845 103.26 294.937 103.061 294.951C101.724 295.039 100.382 295.046 99.0443 294.97C98.8445 294.959 98.6574 294.869 98.5241 294.72C98.3908 294.57 98.3223 294.374 98.3336 294.175C98.3449 293.975 98.4351 293.788 98.5844 293.654C98.7336 293.521 98.9297 293.453 99.1295 293.464C100.406 293.536 101.685 293.529 102.961 293.444C103.11 293.435 103.258 293.47 103.387 293.544C103.516 293.619 103.621 293.73 103.687 293.864ZM95.8689 293.418C95.9314 293.544 95.9574 293.685 95.944 293.825C95.9307 293.965 95.8784 294.098 95.7931 294.21C95.7079 294.322 95.593 294.408 95.4615 294.458C95.3301 294.508 95.1872 294.52 95.0492 294.493C93.7312 294.252 92.4293 293.93 91.1508 293.529C90.96 293.469 90.8007 293.336 90.7082 293.159C90.6157 292.981 90.5974 292.774 90.6574 292.584C90.7174 292.393 90.8508 292.234 91.0281 292.141C91.2055 292.048 91.4124 292.03 91.6033 292.09C92.8227 292.472 94.0643 292.78 95.3213 293.01C95.4384 293.03 95.549 293.077 95.6442 293.148C95.7394 293.219 95.8164 293.312 95.8689 293.418ZM88.3967 291.077C88.4645 291.216 88.4878 291.373 88.4637 291.525C88.4395 291.678 88.3689 291.82 88.2616 291.931C88.1542 292.042 88.0152 292.118 87.8635 292.147C87.7117 292.177 87.5545 292.159 87.4131 292.097C86.1941 291.542 85.0099 290.915 83.8672 290.216C83.6966 290.112 83.5744 289.944 83.5275 289.75C83.4806 289.555 83.5129 289.35 83.6172 289.18C83.7216 289.009 83.8894 288.887 84.0839 288.84C84.2783 288.793 84.4835 288.825 84.6541 288.929C85.7427 289.596 86.8711 290.195 88.0328 290.723C88.1911 290.796 88.3196 290.921 88.3967 291.077ZM81.7197 286.993C81.7959 287.147 81.8173 287.323 81.7803 287.49C81.7434 287.658 81.6503 287.808 81.5165 287.916C81.3827 288.023 81.2162 288.082 81.0444 288.082C80.8727 288.082 80.7061 288.024 80.5721 287.916C79.5245 287.083 78.5292 286.185 77.5918 285.23C77.5225 285.159 77.4678 285.075 77.4309 284.983C77.3939 284.891 77.3755 284.793 77.3765 284.694C77.3776 284.594 77.3982 284.497 77.4371 284.405C77.476 284.314 77.5325 284.232 77.6033 284.162C77.6741 284.093 77.7579 284.038 77.8499 284.001C77.9418 283.964 78.0402 283.946 78.1393 283.947C78.2384 283.948 78.3363 283.969 78.4274 284.008C78.5186 284.046 78.6012 284.103 78.6705 284.174C79.5639 285.083 80.5127 285.937 81.5115 286.729C81.6002 286.8 81.6714 286.891 81.7197 286.993ZM76.2443 281.402C76.3265 281.57 76.3432 281.762 76.2912 281.942C76.2392 282.122 76.1222 282.276 75.9629 282.374C75.8037 282.473 75.6136 282.508 75.4296 282.474C75.2455 282.44 75.0807 282.339 74.9672 282.19C74.1566 281.127 73.412 280.015 72.7377 278.861C72.6371 278.687 72.6096 278.48 72.6614 278.286C72.7132 278.092 72.84 277.926 73.0139 277.825C73.1879 277.725 73.3946 277.697 73.5888 277.749C73.7829 277.801 73.9485 277.928 74.0492 278.102C74.6931 279.206 75.4048 280.269 76.1803 281.285C76.2048 281.322 76.2261 281.361 76.2443 281.402ZM70.9836 270.939C71.0038 270.979 71.0198 271.021 71.0312 271.064C71.3415 272.13 71.7076 273.18 72.1279 274.208C72.1918 274.372 72.2557 274.518 72.3213 274.669C72.398 274.852 72.3994 275.058 72.3251 275.242C72.2508 275.426 72.1069 275.574 71.9246 275.652C71.8341 275.692 71.7368 275.712 71.6383 275.714C71.5397 275.715 71.4419 275.697 71.3504 275.66C71.2589 275.623 71.1757 275.569 71.1054 275.5C71.0351 275.431 70.9792 275.348 70.941 275.257C70.8721 275.093 70.8033 274.93 70.7377 274.766C70.2963 273.689 69.9132 272.59 69.5902 271.472C69.5391 271.292 69.5573 271.098 69.6411 270.93C69.7249 270.762 69.8683 270.632 70.0433 270.564C70.2184 270.496 70.4124 270.496 70.5875 270.564C70.7626 270.631 70.9061 270.762 70.9902 270.929L70.9836 270.939Z" fill="#B9BCC5"/>
</g>
<g opacity="0.3">
<path d="M129.907 247.657C129.996 247.836 130.011 248.043 129.948 248.233C129.885 248.423 129.749 248.58 129.57 248.67C129.391 248.759 129.184 248.774 128.994 248.711C128.804 248.648 128.647 248.512 128.557 248.333C127.988 247.213 127.351 246.128 126.651 245.085C126.595 245.003 126.555 244.911 126.535 244.813C126.515 244.716 126.514 244.616 126.533 244.518C126.552 244.42 126.589 244.327 126.644 244.244C126.699 244.161 126.77 244.09 126.852 244.034C126.935 243.979 127.027 243.94 127.125 243.921C127.222 243.901 127.323 243.901 127.42 243.92C127.518 243.94 127.611 243.978 127.693 244.033C127.776 244.089 127.847 244.16 127.902 244.243C128.636 245.337 129.303 246.474 129.902 247.648L129.907 247.657ZM131.444 251.195C131.457 251.219 131.468 251.245 131.477 251.27C131.929 252.508 132.307 253.772 132.608 255.054C132.631 255.151 132.634 255.251 132.618 255.35C132.602 255.448 132.566 255.542 132.514 255.626C132.461 255.711 132.393 255.784 132.312 255.842C132.231 255.9 132.139 255.941 132.043 255.964C131.946 255.987 131.845 255.99 131.747 255.974C131.649 255.957 131.555 255.922 131.471 255.87C131.386 255.817 131.313 255.748 131.255 255.668C131.197 255.587 131.155 255.495 131.133 255.398C130.845 254.176 130.485 252.971 130.054 251.792C129.989 251.611 129.995 251.412 130.072 251.236C130.149 251.06 130.29 250.919 130.466 250.843C130.643 250.768 130.842 250.762 131.022 250.828C131.203 250.894 131.352 251.027 131.438 251.198L131.444 251.195ZM125.61 241.266C125.685 241.429 125.7 241.615 125.65 241.789C125.601 241.962 125.49 242.112 125.34 242.212C125.189 242.311 125.007 242.353 124.828 242.329C124.649 242.306 124.485 242.22 124.364 242.085C123.54 241.137 122.66 240.238 121.728 239.395C121.654 239.329 121.595 239.248 121.552 239.159C121.51 239.069 121.485 238.972 121.48 238.874C121.475 238.775 121.49 238.676 121.523 238.582C121.556 238.489 121.607 238.403 121.674 238.33C121.74 238.256 121.82 238.196 121.91 238.154C121.999 238.111 122.096 238.087 122.195 238.082C122.294 238.077 122.393 238.091 122.487 238.124C122.58 238.158 122.666 238.209 122.739 238.275C123.717 239.159 124.639 240.102 125.503 241.097C125.546 241.148 125.581 241.205 125.61 241.266ZM133.2 258.698C133.238 258.777 133.263 258.862 133.274 258.949C133.415 260.26 133.477 261.578 133.457 262.897C133.455 263.097 133.372 263.287 133.229 263.427C133.086 263.566 132.893 263.643 132.693 263.64C132.493 263.637 132.302 263.555 132.163 263.412C132.023 263.268 131.946 263.075 131.949 262.875C131.967 261.616 131.909 260.357 131.774 259.105C131.755 258.929 131.799 258.752 131.898 258.605C131.996 258.458 132.144 258.35 132.314 258.301C132.484 258.252 132.666 258.264 132.828 258.335C132.99 258.407 133.122 258.533 133.2 258.692V258.698ZM119.897 236.103C119.971 236.254 119.993 236.424 119.959 236.588C119.926 236.753 119.838 236.901 119.711 237.01C119.584 237.119 119.424 237.182 119.257 237.19C119.089 237.198 118.924 237.15 118.787 237.054C117.759 236.331 116.689 235.671 115.582 235.077C115.406 234.982 115.274 234.822 115.216 234.63C115.159 234.439 115.179 234.232 115.274 234.056C115.368 233.879 115.529 233.748 115.721 233.69C115.912 233.632 116.119 233.653 116.295 233.748C117.456 234.371 118.578 235.064 119.656 235.821C119.758 235.894 119.841 235.991 119.897 236.103ZM113.115 232.467C113.182 232.603 113.206 232.757 113.185 232.907C113.163 233.057 113.097 233.198 112.994 233.31C112.892 233.422 112.758 233.5 112.61 233.534C112.462 233.569 112.307 233.558 112.166 233.503C110.994 233.049 109.796 232.666 108.579 232.356C108.389 232.302 108.229 232.177 108.13 232.006C108.032 231.836 108.005 231.634 108.053 231.443C108.102 231.253 108.223 231.089 108.391 230.986C108.559 230.884 108.761 230.851 108.952 230.895C110.229 231.222 111.485 231.626 112.713 232.105C112.888 232.171 113.031 232.3 113.115 232.467ZM105.652 230.556C105.719 230.689 105.744 230.839 105.723 230.987C105.711 231.086 105.68 231.181 105.631 231.268C105.582 231.354 105.516 231.43 105.438 231.491C105.359 231.552 105.269 231.597 105.173 231.623C105.077 231.649 104.977 231.656 104.879 231.643C103.632 231.479 102.377 231.393 101.12 231.384C100.926 231.373 100.743 231.288 100.61 231.146C100.477 231.004 100.403 230.817 100.405 230.622C100.407 230.428 100.483 230.242 100.619 230.102C100.754 229.963 100.938 229.881 101.133 229.874C102.449 229.886 103.762 229.977 105.067 230.148C105.19 230.161 105.307 230.206 105.409 230.276C105.511 230.346 105.593 230.441 105.649 230.551L105.652 230.556Z" fill="#B9BCC5"/>
<path d="M133.085 266.436C133.152 266.571 133.176 266.723 133.156 266.872C133.067 267.511 132.959 268.151 132.828 268.774C132.815 268.876 132.78 268.975 132.727 269.064C132.674 269.153 132.604 269.229 132.52 269.29C132.436 269.35 132.34 269.392 132.239 269.414C132.138 269.436 132.034 269.437 131.932 269.417C131.831 269.396 131.735 269.355 131.65 269.296C131.565 269.237 131.493 269.161 131.439 269.074C131.384 268.986 131.348 268.887 131.334 268.785C131.319 268.683 131.325 268.578 131.352 268.479C131.47 267.885 131.574 267.275 131.657 266.666C131.679 266.505 131.752 266.356 131.865 266.241C131.978 266.125 132.125 266.049 132.285 266.023C132.444 265.997 132.608 266.023 132.752 266.098C132.895 266.172 133.011 266.291 133.082 266.436H133.085Z" fill="#B9BCC5"/>
</g>
<path d="M124.067 270.172C124.101 270.1 124.11 270.019 124.095 269.941C124.08 269.863 124.041 269.792 123.984 269.738L120.618 266.533C121.053 264.374 121.134 262.16 120.857 259.975L124.443 257.025C124.504 256.974 124.548 256.906 124.569 256.829C124.59 256.753 124.586 256.671 124.559 256.597L122.613 251.372C122.585 251.298 122.535 251.234 122.469 251.189C122.403 251.145 122.325 251.122 122.246 251.125L117.602 251.238C116.383 249.405 114.874 247.783 113.133 246.436L113.582 241.81C113.589 241.731 113.572 241.652 113.532 241.583C113.493 241.514 113.433 241.459 113.361 241.426L108.29 239.108C108.218 239.075 108.137 239.065 108.059 239.08C107.98 239.095 107.909 239.134 107.854 239.192L104.649 242.557C102.491 242.122 100.276 242.041 98.0918 242.318L95.141 238.731C95.0901 238.67 95.0217 238.627 94.9452 238.606C94.8686 238.586 94.7876 238.589 94.7131 238.616L89.4885 240.562C89.4139 240.59 89.3498 240.64 89.3051 240.706C89.2605 240.772 89.2374 240.85 89.2393 240.93L89.3524 245.574C87.52 246.792 85.8987 248.302 84.5524 250.043L79.9262 249.593C79.847 249.586 79.7676 249.604 79.6987 249.643C79.6297 249.683 79.5747 249.743 79.541 249.815L77.2229 254.885C77.1899 254.958 77.1803 255.038 77.1952 255.117C77.2102 255.195 77.2491 255.266 77.3065 255.321L80.6754 258.533C80.2391 260.691 80.1582 262.906 80.436 265.09L76.8492 268.041C76.7877 268.091 76.7436 268.16 76.7231 268.237C76.7025 268.313 76.7065 268.394 76.7344 268.469L78.6885 273.69C78.7161 273.765 78.7664 273.829 78.8322 273.874C78.898 273.918 78.9762 273.941 79.0557 273.939L83.6983 273.825C84.9175 275.658 86.4275 277.279 88.1688 278.626L87.7049 283.252C87.697 283.332 87.7141 283.411 87.7538 283.481C87.7935 283.55 87.8538 283.605 87.9262 283.638L92.9967 285.956C93.069 285.988 93.1497 285.998 93.2275 285.982C93.3054 285.967 93.3765 285.928 93.4311 285.871L96.636 282.505C98.7942 282.941 101.009 283.022 103.193 282.744L106.144 286.331C106.195 286.393 106.263 286.437 106.34 286.457C106.416 286.478 106.498 286.474 106.572 286.446L111.803 284.5C111.878 284.472 111.942 284.422 111.986 284.356C112.03 284.29 112.053 284.212 112.051 284.133L111.938 279.489C113.771 278.27 115.392 276.761 116.739 275.02L121.366 275.469C121.445 275.477 121.524 275.459 121.593 275.42C121.662 275.38 121.716 275.32 121.749 275.248L124.067 270.172Z" fill="#415CAE"/>
<path d="M105.771 260.025C106.422 261.352 106.534 262.881 106.082 264.289C105.63 265.697 104.65 266.876 103.347 267.576C102.045 268.277 100.521 268.445 99.0972 268.045C97.6732 267.646 96.4595 266.71 95.7112 265.434C94.9629 264.159 94.7384 262.642 95.0849 261.204C95.4313 259.767 96.3217 258.519 97.5689 257.724C98.8161 256.929 100.323 256.649 101.773 256.942C103.222 257.235 104.502 258.078 105.343 259.295C105.502 259.528 105.645 259.772 105.771 260.025ZM96.8853 264.385C96.9758 264.57 97.0799 264.747 97.1967 264.916C97.4994 265.393 97.8952 265.804 98.3604 266.125C98.8257 266.445 99.3508 266.668 99.9044 266.781C100.458 266.893 101.028 266.893 101.582 266.779C102.135 266.666 102.66 266.442 103.125 266.121C103.59 265.8 103.985 265.389 104.287 264.912C104.589 264.434 104.791 263.901 104.882 263.343C104.973 262.786 104.951 262.216 104.816 261.667C104.681 261.119 104.437 260.603 104.098 260.151C103.492 259.291 102.584 258.69 101.555 258.468C100.527 258.246 99.4521 258.418 98.5445 258.951C97.6369 259.484 96.9626 260.338 96.6553 261.345C96.348 262.351 96.43 263.436 96.8853 264.385Z" fill="#D7D9E0"/>
<path d="M113.279 256.208C113.923 257.51 114.365 258.901 114.59 260.336L114.61 260.464C114.633 260.622 114.605 260.783 114.531 260.924C114.456 261.065 114.34 261.179 114.197 261.249C114.126 261.284 114.05 261.308 113.972 261.32C113.774 261.348 113.573 261.296 113.413 261.176C113.253 261.057 113.147 260.878 113.118 260.68C112.988 259.785 112.763 258.905 112.446 258.057C112.428 258.01 112.41 257.964 112.393 257.918C111.641 255.951 110.408 254.204 108.807 252.836C107.931 252.095 106.96 251.474 105.92 250.992L105.893 250.979L105.815 250.943C104.299 250.245 102.66 249.855 100.993 249.795C99.3261 249.735 97.6635 250.006 96.1016 250.592C95.6932 250.744 95.2927 250.917 94.9016 251.11C91.9884 252.556 89.7409 255.064 88.6226 258.118C87.5044 261.172 87.6005 264.539 88.8913 267.524C90.1821 270.509 92.5691 272.885 95.5602 274.163C98.5512 275.44 101.918 275.521 104.967 274.389C105.373 274.238 105.768 274.068 106.152 273.879C107.821 273.057 109.288 271.879 110.449 270.426C110.519 270.34 110.606 270.27 110.705 270.221C110.859 270.145 111.034 270.124 111.202 270.161C111.369 270.198 111.52 270.291 111.627 270.424C111.735 270.558 111.794 270.725 111.794 270.897C111.794 271.068 111.735 271.235 111.628 271.369C110.298 273.029 108.613 274.369 106.697 275.291C104.78 276.212 102.681 276.692 100.555 276.695C98.4282 276.697 96.3282 276.222 94.4096 275.305C92.4911 274.387 90.8029 273.051 89.4696 271.394C88.1363 269.738 87.1919 267.803 86.706 265.732C86.2202 263.662 86.2053 261.509 86.6624 259.432C87.1196 257.355 88.0371 255.407 89.3473 253.732C90.6575 252.057 92.3271 250.698 94.2328 249.754C94.6699 249.541 95.1175 249.348 95.5754 249.175C98.8736 247.952 102.508 247.993 105.778 249.292C109.047 250.591 111.719 253.055 113.279 256.208Z" fill="#D7D9E0"/>
</g>
<defs>
<linearGradient id="paint0_linear_81_146" x1="221.749" y1="177.759" x2="179.603" y2="148.038" gradientUnits="userSpaceOnUse">
<stop stop-color="white"/>
<stop offset="1" stop-color="#EFEFF4"/>
</linearGradient>
<linearGradient id="paint1_linear_81_146" x1="255.407" y1="241.775" x2="250.746" y2="291.016" gradientUnits="userSpaceOnUse">
<stop stop-color="white"/>
<stop offset="1" stop-color="#EFEFF4"/>
</linearGradient>
<linearGradient id="paint2_linear_81_146" x1="264.192" y1="214.675" x2="281.571" y2="261.521" gradientUnits="userSpaceOnUse">
<stop stop-color="white"/>
<stop offset="0.58" stop-color="#F8F8FA"/>
<stop offset="1" stop-color="#EFEFF4"/>
</linearGradient>
<linearGradient id="paint3_linear_81_146" x1="253.65" y1="169.385" x2="254.699" y2="133.778" gradientUnits="userSpaceOnUse">
<stop stop-color="white"/>
<stop offset="1" stop-color="#EFEFF4"/>
</linearGradient>
<linearGradient id="paint4_linear_81_146" x1="289.567" y1="218.997" x2="307.702" y2="257.28" gradientUnits="userSpaceOnUse">
<stop stop-color="white"/>
<stop offset="1" stop-color="#EFEFF4"/>
</linearGradient>
<linearGradient id="paint5_linear_81_146" x1="264.115" y1="132.479" x2="294.003" y2="101.918" gradientUnits="userSpaceOnUse">
<stop stop-color="white"/>
<stop offset="1" stop-color="#EFEFF4"/>
</linearGradient>
<linearGradient id="paint6_linear_81_146" x1="268.123" y1="136.398" x2="298.012" y2="105.838" gradientUnits="userSpaceOnUse">
<stop stop-color="white"/>
<stop offset="1" stop-color="#EFEFF4"/>
</linearGradient>
<clipPath id="clip0_81_146">
<rect width="300" height="295.752" fill="white"/>
</clipPath>
</defs>
</svg>
